<svg width="73" height="72" viewBox="0 0 73 72" fill="none" xmlns="http://www.w3.org/2000/svg">
<g clip-path="url(#clip0_2_129)">
<g clip-path="url(#clip1_2_129)">
<path d="M13.6998 25.2002H11.2998V27.6002H13.6998V25.2002Z" fill="#23A6F0"/>
</g>
</g>
<g clip-path="url(#clip2_2_129)">
<g clip-path="url(#clip3_2_129)">
<path d="M28.1001 25.2002H16.1001V27.6002H28.1001V25.2002Z" fill="#23A6F0"/>
</g>
</g>
<g clip-path="url(#clip4_2_129)">
<g clip-path="url(#clip5_2_129)">
<path d="M28.0999 30H8.8999V32.4H28.0999V30Z" fill="#23A6F0"/>
</g>
</g>
<g clip-path="url(#clip6_2_129)">
<g clip-path="url(#clip7_2_129)">
<path d="M23.2999 34.7998H8.8999V37.1998H23.2999V34.7998Z" fill="#23A6F0"/>
</g>
</g>
<g clip-path="url(#clip8_2_129)">
<g clip-path="url(#clip9_2_129)">
<path d="M37.6998 60H35.2998V62.4H37.6998V60Z" fill="#23A6F0"/>
</g>
</g>
<g clip-path="url(#clip10_2_129)">
<g clip-path="url(#clip11_2_129)">
<path d="M40.1002 9.6001H37.7002V12.0001H40.1002V9.6001Z" fill="#23A6F0"/>
</g>
</g>
<g clip-path="url(#clip12_2_129)">
<g clip-path="url(#clip13_2_129)">
<path d="M35.2999 9.6001H32.8999V12.0001H35.2999V9.6001Z" fill="#23A6F0"/>
</g>
</g>
<g clip-path="url(#clip14_2_129)">
<g clip-path="url(#clip15_2_129)">
<path d="M66.4999 23.9998H55.6999V9.5998C55.6999 6.94885 53.5508 4.7998 50.8999 4.7998H22.0999C19.449 4.7998 17.2999 6.94885 17.2999 9.5998V20.3998H6.4999C4.51165 20.3998 2.8999 22.0116 2.8999 23.9998V38.3998C2.8999 40.3881 4.51165 41.9998 6.4999 41.9998H17.2999V62.3998C17.2999 65.0508 19.449 67.1998 22.0999 67.1998H50.8999C53.5508 67.1998 55.6999 65.0508 55.6999 62.3998V47.9998H66.4999C68.4882 47.9998 70.0999 46.3881 70.0999 44.3998V27.5998C70.0999 25.6116 68.4882 23.9998 66.4999 23.9998ZM19.6999 9.5998C19.6999 8.27425 20.7744 7.1998 22.0999 7.1998H50.8999C52.2254 7.1998 53.2999 8.27425 53.2999 9.5998V14.3998H19.6999V9.5998ZM6.4999 39.5998C5.8372 39.5998 5.2999 39.0625 5.2999 38.3998V23.9998C5.2999 23.3371 5.8372 22.7998 6.4999 22.7998H30.4999C31.1626 22.7998 31.6999 23.3371 31.6999 23.9998V38.3998C31.6999 39.0625 31.1626 39.5998 30.4999 39.5998H26.8999C26.2372 39.5998 25.6999 40.1371 25.6999 40.7998V43.357L20.3659 39.8014C20.1685 39.6703 19.9369 39.6003 19.6999 39.5998H6.4999ZM53.2999 62.3998C53.2999 63.7254 52.2254 64.7998 50.8999 64.7998H22.0999C20.7744 64.7998 19.6999 63.7254 19.6999 62.3998V57.5998H53.2999V62.3998ZM53.2999 55.1998H19.6999V42.2398L26.2339 46.5958C26.7852 46.9636 27.5304 46.8149 27.8982 46.2635C28.0293 46.0671 28.0995 45.8361 28.0999 45.5998V41.9998H30.4999C32.4882 41.9998 34.0999 40.3881 34.0999 38.3998V23.9998C34.0999 22.0116 32.4882 20.3998 30.4999 20.3998H19.6999V16.7998H53.2999V23.9998H42.4999C40.5117 23.9998 38.8999 25.6116 38.8999 27.5998V44.3998C38.8999 46.3881 40.5117 47.9998 42.4999 47.9998H44.8999V51.5998C44.8998 52.2625 45.437 52.8 46.0998 52.8C46.3369 52.8 46.5686 52.7298 46.7659 52.5982L53.2999 48.2398V55.1998ZM67.6999 44.3998C67.6999 45.0625 67.1626 45.5998 66.4999 45.5998H53.2999C53.0629 45.6003 52.8313 45.6703 52.6339 45.8014L47.2999 49.357V46.7998C47.2999 46.1371 46.7626 45.5998 46.0999 45.5998H42.4999C41.8372 45.5998 41.2999 45.0625 41.2999 44.3998V27.5998C41.2999 26.9371 41.8372 26.3998 42.4999 26.3998H66.4999C67.1626 26.3998 67.6999 26.9371 67.6999 27.5998V44.3998Z" fill="#23A6F0"/>
</g>
</g>
<g clip-path="url(#clip16_2_129)">
<g clip-path="url(#clip17_2_129)">
<path d="M14.9 63.6V54H12.5V63.6C12.5052 68.2369 16.263 71.9947 20.9 72V69.6C17.588 69.5961 14.9039 66.912 14.9 63.6Z" fill="#23A6F0"/>
</g>
</g>
<g clip-path="url(#clip18_2_129)">
<g clip-path="url(#clip19_2_129)">
<path d="M14.9 49.2002H12.5V51.6002H14.9V49.2002Z" fill="#23A6F0"/>
</g>
</g>
<g clip-path="url(#clip20_2_129)">
<g clip-path="url(#clip21_2_129)">
<path d="M52.1 0H48.5V2.4H52.1C55.412 2.4039 58.0961 5.088 58.1 8.4V14.4H60.5V8.4C60.4948 3.76305 56.7369 0.00525 52.1 0Z" fill="#23A6F0"/>
</g>
</g>
<g clip-path="url(#clip22_2_129)">
<g clip-path="url(#clip23_2_129)">
<path d="M60.5001 16.7998H58.1001V19.1998H60.5001V16.7998Z" fill="#23A6F0"/>
</g>
</g>
<g clip-path="url(#clip24_2_129)">
<g clip-path="url(#clip25_2_129)">
<path d="M60.4998 32.3998H58.0998V29.9998C58.0998 29.3371 57.5625 28.7998 56.8998 28.7998H52.0998C51.4371 28.7998 50.8998 29.3371 50.8998 29.9998V32.3998H48.4998C47.8371 32.3998 47.2998 32.9371 47.2998 33.5998V38.3998C47.2998 39.0625 47.8371 39.5998 48.4998 39.5998H50.8998V41.9998C50.8998 42.6625 51.4371 43.1998 52.0998 43.1998H56.8998C57.5625 43.1998 58.0998 42.6625 58.0998 41.9998V39.5998H60.4998C61.1625 39.5998 61.6998 39.0625 61.6998 38.3998V33.5998C61.6998 32.9371 61.1625 32.3998 60.4998 32.3998ZM59.2998 37.1998H56.8998C56.2371 37.1998 55.6998 37.7371 55.6998 38.3998V40.7998H53.2998V38.3998C53.2998 37.7371 52.7625 37.1998 52.0998 37.1998H49.6998V34.7998H52.0998C52.7625 34.7998 53.2998 34.2625 53.2998 33.5998V31.1998H55.6998V33.5998C55.6998 34.2625 56.2371 34.7998 56.8998 34.7998H59.2998V37.1998Z" fill="#23A6F0"/>
</g>
</g>
<defs>
<clipPath id="clip0_2_129">
<rect width="2.4" height="2.4" fill="white" transform="translate(11.2998 25.2002)"/>
</clipPath>
<clipPath id="clip1_2_129">
<rect width="2.4" height="2.4" fill="white" transform="translate(11.2998 25.2002)"/>
</clipPath>
<clipPath id="clip2_2_129">
<rect width="12" height="2.4" fill="white" transform="translate(16.1001 25.2002)"/>
</clipPath>
<clipPath id="clip3_2_129">
<rect width="12" height="2.4" fill="white" transform="translate(16.1001 25.2002)"/>
</clipPath>
<clipPath id="clip4_2_129">
<rect width="19.2" height="2.4" fill="white" transform="translate(8.8999 30)"/>
</clipPath>
<clipPath id="clip5_2_129">
<rect width="19.2" height="2.4" fill="white" transform="translate(8.8999 30)"/>
</clipPath>
<clipPath id="clip6_2_129">
<rect width="14.4" height="2.4" fill="white" transform="translate(8.8999 34.7998)"/>
</clipPath>
<clipPath id="clip7_2_129">
<rect width="14.4" height="2.4" fill="white" transform="translate(8.8999 34.7998)"/>
</clipPath>
<clipPath id="clip8_2_129">
<rect width="2.4" height="2.4" fill="white" transform="translate(35.2998 60)"/>
</clipPath>
<clipPath id="clip9_2_129">
<rect width="2.4" height="2.4" fill="white" transform="translate(35.2998 60)"/>
</clipPath>
<clipPath id="clip10_2_129">
<rect width="2.40001" height="2.4" fill="white" transform="translate(37.7002 9.6001)"/>
</clipPath>
<clipPath id="clip11_2_129">
<rect width="2.40001" height="2.4" fill="white" transform="translate(37.7002 9.6001)"/>
</clipPath>
<clipPath id="clip12_2_129">
<rect width="2.4" height="2.4" fill="white" transform="translate(32.8999 9.6001)"/>
</clipPath>
<clipPath id="clip13_2_129">
<rect width="2.4" height="2.4" fill="white" transform="translate(32.8999 9.6001)"/>
</clipPath>
<clipPath id="clip14_2_129">
<rect width="67.2" height="62.4" fill="white" transform="translate(2.8999 4.7998)"/>
</clipPath>
<clipPath id="clip15_2_129">
<rect width="67.2" height="62.4" fill="white" transform="translate(2.8999 4.7998)"/>
</clipPath>
<clipPath id="clip16_2_129">
<rect width="8.4" height="18" fill="white" transform="translate(12.5 54)"/>
</clipPath>
<clipPath id="clip17_2_129">
<rect width="8.4" height="18" fill="white" transform="translate(12.5 54)"/>
</clipPath>
<clipPath id="clip18_2_129">
<rect width="2.4" height="2.4" fill="white" transform="translate(12.5 49.2002)"/>
</clipPath>
<clipPath id="clip19_2_129">
<rect width="2.4" height="2.4" fill="white" transform="translate(12.5 49.2002)"/>
</clipPath>
<clipPath id="clip20_2_129">
<rect width="12" height="14.4" fill="white" transform="translate(48.5)"/>
</clipPath>
<clipPath id="clip21_2_129">
<rect width="12" height="14.4" fill="white" transform="translate(48.5)"/>
</clipPath>
<clipPath id="clip22_2_129">
<rect width="2.4" height="2.4" fill="white" transform="translate(58.1001 16.7998)"/>
</clipPath>
<clipPath id="clip23_2_129">
<rect width="2.4" height="2.4" fill="white" transform="translate(58.1001 16.7998)"/>
</clipPath>
<clipPath id="clip24_2_129">
<rect width="14.4" height="14.4" fill="white" transform="translate(47.2998 28.7998)"/>
</clipPath>
<clipPath id="clip25_2_129">
<rect width="14.4" height="14.4" fill="white" transform="translate(47.2998 28.7998)"/>
</clipPath>
</defs>
</svg>
