<svg width="24" height="24" viewBox="0 0 24 24" fill="none" xmlns="http://www.w3.org/2000/svg">
<path d="M18.8483 12.3517C18.737 12.2402 18.6047 12.1517 18.4592 12.0913C18.3136 12.031 18.1575 11.9999 17.9999 11.9999C17.8423 11.9999 17.6863 12.031 17.5407 12.0913C17.3951 12.1517 17.2629 12.2402 17.1515 12.3517L15.2388 14.2645C14.352 14.0005 12.6972 13.4005 11.6484 12.3517C10.5996 11.3029 9.99962 9.64814 9.73562 8.76135L11.6484 6.84857C11.7599 6.73723 11.8484 6.60498 11.9088 6.45941C11.9692 6.31383 12.0002 6.15778 12.0002 6.00018C12.0002 5.84258 11.9692 5.68653 11.9088 5.54095C11.8484 5.39538 11.7599 5.26313 11.6484 5.15179L6.84845 0.351838C6.73711 0.240304 6.60486 0.151819 6.45929 0.0914472C6.31371 0.031075 6.15766 0 6.00006 0C5.84246 0 5.68641 0.031075 5.54083 0.0914472C5.39526 0.151819 5.26301 0.240304 5.15167 0.351838L1.8973 3.60621C1.44131 4.0622 1.18451 4.68859 1.19411 5.32819C1.22171 7.03697 1.6741 12.9721 6.35166 17.6497C11.0292 22.3272 16.9644 22.7784 18.6743 22.8072H18.7079C19.3415 22.8072 19.9403 22.5576 20.3939 22.104L23.6483 18.8497C23.7598 18.7383 23.8483 18.6061 23.9087 18.4605C23.969 18.3149 24.0001 18.1589 24.0001 18.0013C24.0001 17.8437 23.969 17.6876 23.9087 17.542C23.8483 17.3965 23.7598 17.2642 23.6483 17.1529L18.8483 12.3517ZM18.6959 20.406C17.1983 20.3808 12.0744 19.9788 8.04844 15.9517C4.00928 11.9125 3.61808 6.77057 3.59408 5.30299L6.00006 2.89701L9.10323 6.00018L7.55164 7.55177C7.4106 7.6927 7.3069 7.86657 7.24991 8.05764C7.19292 8.24872 7.18445 8.45098 7.22525 8.64615C7.25405 8.78415 7.95844 12.0565 9.95042 14.0485C11.9424 16.0405 15.2148 16.7449 15.3528 16.7737C15.5478 16.8156 15.7503 16.8078 15.9415 16.751C16.1328 16.6942 16.3067 16.5901 16.4472 16.4485L17.9999 14.8969L21.1031 18.0001L18.6959 20.406Z" fill="#23A6F0"/>
</svg>
