<svg width="73" height="72" viewBox="0 0 73 72" fill="none" xmlns="http://www.w3.org/2000/svg">
<g clip-path="url(#clip0_2_174)">
<g clip-path="url(#clip1_2_174)">
<path d="M52.25 2.25H20.75C18.9603 2.25179 17.2445 2.96352 15.979 4.229C14.7135 5.49449 14.0018 7.21034 14 9V63C14.0018 64.7897 14.7135 66.5055 15.979 67.771C17.2445 69.0365 18.9603 69.7482 20.75 69.75H52.25C54.0397 69.7482 55.7555 69.0365 57.021 67.771C58.2865 66.5055 58.9982 64.7897 59 63V9C58.9982 7.21034 58.2865 5.49449 57.021 4.229C55.7555 2.96352 54.0397 2.25179 52.25 2.25ZM56.75 63C56.75 64.1935 56.2759 65.3381 55.432 66.182C54.5881 67.0259 53.4435 67.5 52.25 67.5H20.75C19.5565 67.5 18.4119 67.0259 17.568 66.182C16.7241 65.3381 16.25 64.1935 16.25 63V9C16.25 7.80653 16.7241 6.66193 17.568 5.81802C18.4119 4.97411 19.5565 4.5 20.75 4.5H52.25C53.4435 4.5 54.5881 4.97411 55.432 5.81802C56.2759 6.66193 56.75 7.80653 56.75 9V63Z" fill="#40BB15"/>
<path d="M38.75 58.5H34.25C33.3549 58.5 32.4964 58.8556 31.8635 59.4885C31.2306 60.1215 30.875 60.9799 30.875 61.875C30.875 62.7701 31.2306 63.6285 31.8635 64.2615C32.4964 64.8944 33.3549 65.25 34.25 65.25H38.75C39.6451 65.25 40.5035 64.8944 41.1365 64.2615C41.7694 63.6285 42.125 62.7701 42.125 61.875C42.125 60.9799 41.7694 60.1215 41.1365 59.4885C40.5035 58.8556 39.6451 58.5 38.75 58.5ZM38.75 63H34.25C33.9516 63 33.6655 62.8815 33.4545 62.6705C33.2435 62.4595 33.125 62.1734 33.125 61.875C33.125 61.5766 33.2435 61.2905 33.4545 61.0795C33.6655 60.8685 33.9516 60.75 34.25 60.75H38.75C39.0484 60.75 39.3345 60.8685 39.5455 61.0795C39.7565 61.2905 39.875 61.5766 39.875 61.875C39.875 62.1734 39.7565 62.4595 39.5455 62.6705C39.3345 62.8815 39.0484 63 38.75 63Z" fill="#40BB15"/>
<path d="M28.625 6.75H30.875V9H28.625V6.75Z" fill="#40BB15"/>
<path d="M33.125 6.75H39.875V9H33.125V6.75Z" fill="#40BB15"/>
<path d="M35.7047 31.1703C35.9156 31.3812 36.2017 31.4997 36.5 31.4997C36.7983 31.4997 37.0844 31.3812 37.2954 31.1703L45.2503 23.2154C46.2975 22.1589 46.8837 20.7306 46.8804 19.2431C46.8772 17.7555 46.2848 16.3298 45.2329 15.2779C44.181 14.226 42.7553 13.6336 41.2677 13.6304C39.7802 13.6271 38.3519 14.2133 37.2954 15.2605L36.5 16.0559L35.7047 15.2605C34.6482 14.2133 33.2199 13.6271 31.7323 13.6304C30.2447 13.6336 28.819 14.226 27.7672 15.2779C26.7153 16.3298 26.1229 17.7555 26.1196 19.2431C26.1164 20.7306 26.7025 22.1589 27.7498 23.2154L35.7047 31.1703ZM29.3405 16.8513C29.6539 16.5378 30.026 16.2892 30.4355 16.1195C30.845 15.9499 31.284 15.8625 31.7272 15.8625C32.1705 15.8625 32.6094 15.9499 33.0189 16.1195C33.4284 16.2892 33.8005 16.5378 34.1139 16.8513L35.7047 18.4431C35.9196 18.6464 36.2042 18.7597 36.5 18.7597C36.7959 18.7597 37.0805 18.6464 37.2954 18.4431L38.8862 16.8513C39.5191 16.2183 40.3777 15.8627 41.2728 15.8627C42.168 15.8627 43.0265 16.2183 43.6595 16.8513C44.2925 17.4843 44.6481 18.3428 44.6481 19.238C44.6481 20.1331 44.2925 20.9917 43.6595 21.6246L36.5 28.7841L29.3405 21.6246C28.7088 20.991 28.3541 20.1327 28.3541 19.238C28.3541 18.3432 28.7088 17.4849 29.3405 16.8513Z" fill="#40BB15"/>
<path d="M44.2625 41.1223C44.1638 40.9173 44.0045 40.7476 43.806 40.6363C43.6076 40.525 43.3797 40.4775 43.1533 40.5002C42.9286 40.5195 42.715 40.6059 42.5401 40.7482C42.3652 40.8904 42.237 41.0819 42.1722 41.2978L40.0561 48.3493L37.6003 36.8856C37.5467 36.6396 37.4122 36.4186 37.2182 36.2581C37.0243 36.0976 36.7821 36.0068 36.5304 36.0002C36.2779 35.9913 36.0299 36.0686 35.8271 36.2192C35.6243 36.3699 35.4788 36.585 35.4144 36.8293L33.1003 45.3174L31.9572 41.3158C31.8958 41.097 31.7694 40.902 31.5949 40.7564C31.4204 40.6108 31.2059 40.5215 30.9796 40.5002C30.7534 40.4773 30.5257 40.5242 30.327 40.6346C30.1282 40.745 29.9681 40.9136 29.8681 41.1178L27.9297 45.0002H20.75V47.2502H28.625C28.8341 47.2503 29.039 47.1921 29.2169 47.0822C29.3947 46.9724 29.5384 46.8151 29.6319 46.6281L30.5881 44.7156L32.0428 49.8096C32.11 50.0447 32.252 50.2515 32.4473 50.3986C32.6426 50.5458 32.8805 50.6253 33.125 50.6252H33.1318C33.3774 50.6238 33.6159 50.5419 33.8107 50.3922C34.0056 50.2425 34.146 50.0331 34.2106 49.7961L36.3695 41.8817L38.7747 53.1103C38.827 53.3546 38.9591 53.5745 39.1501 53.7354C39.3412 53.8964 39.5804 53.9891 39.83 53.9991H39.875C40.117 53.9991 40.3526 53.921 40.5468 53.7765C40.7409 53.632 40.8833 53.4288 40.9528 53.1969L43.5121 44.6627L44.4931 46.6247C44.5861 46.8123 44.7296 46.9703 44.9075 47.0808C45.0854 47.1913 45.2906 47.25 45.5 47.2502H52.25V45.0002H46.1952L44.2625 41.1223Z" fill="#40BB15"/>
</g>
</g>
<defs>
<clipPath id="clip0_2_174">
<rect width="72" height="72" fill="white" transform="translate(0.5)"/>
</clipPath>
<clipPath id="clip1_2_174">
<rect width="45" height="67.5" fill="white" transform="translate(14 2.25)"/>
</clipPath>
</defs>
</svg>
