<svg width="73" height="72" viewBox="0 0 73 72" fill="none" xmlns="http://www.w3.org/2000/svg">
<g clip-path="url(#clip0_2_188)">
<g clip-path="url(#clip1_2_188)">
<path d="M39.0931 14.991C39.6878 14.9084 40.1028 14.3593 40.0202 13.7646C39.9377 13.1698 39.3886 12.7549 38.7938 12.8377C38.1991 12.9202 37.7842 13.4693 37.867 14.0641C37.9495 14.6586 38.4986 15.0735 39.0931 14.991Z" fill="#E74040"/>
<path d="M20.1802 10.5603C20.7104 10.5603 21.1402 10.1304 21.1402 9.60025V6.72025C21.1402 6.19009 20.7104 5.76025 20.1802 5.76025C19.6501 5.76025 19.2202 6.19009 19.2202 6.72025V9.60025C19.2202 10.1304 19.6501 10.5603 20.1802 10.5603Z" fill="#E74040"/>
<path d="M20.1802 12.4805C19.6501 12.4805 19.2202 12.9103 19.2202 13.4405V16.3205C19.2202 16.8506 19.6501 17.2805 20.1802 17.2805C20.7104 17.2805 21.1402 16.8506 21.1402 16.3205V13.4405C21.1402 12.9103 20.7104 12.4805 20.1802 12.4805Z" fill="#E74040"/>
<path d="M15.3804 12.4801H18.2604C18.7906 12.4801 19.2204 12.0502 19.2204 11.5201C19.2204 10.9899 18.7906 10.5601 18.2604 10.5601H15.3804C14.8503 10.5601 14.4204 10.9899 14.4204 11.5201C14.4204 12.0502 14.8503 12.4801 15.3804 12.4801Z" fill="#E74040"/>
<path d="M22.1001 12.4801H24.9801C25.5103 12.4801 25.9401 12.0502 25.9401 11.5201C25.9401 10.9899 25.5103 10.5601 24.9801 10.5601H22.1001C21.57 10.5601 21.1401 10.9899 21.1401 11.5201C21.1401 12.0502 21.57 12.4801 22.1001 12.4801Z" fill="#E74040"/>
<path d="M58.9354 18.2402H14.065C11.0846 18.2402 8.66016 20.6647 8.66016 23.645V54.1133C8.66016 57.0946 11.0854 59.5202 14.0666 59.5202H30.4277L29.0563 64.3202H19.2202C18.69 64.3202 18.2602 64.7501 18.2602 65.2802C18.2602 65.8104 18.69 66.2402 19.2202 66.2402H54.7402C55.2708 66.2402 55.7002 65.8104 55.7002 65.2802C55.7002 64.7501 55.2708 64.3202 54.7402 64.3202H44.9042L43.5334 59.5202H58.9356C61.9159 59.5202 64.3404 57.0958 64.3404 54.1154V23.645C64.3402 20.6647 61.9157 18.2402 58.9354 18.2402ZM14.065 20.1602H58.9354C60.8573 20.1602 62.4202 21.7236 62.4202 23.645V50.8802H10.5802V23.645C10.5802 21.7236 12.1435 20.1602 14.065 20.1602ZM42.907 64.3202H31.0529L32.4245 59.5202H41.5361L42.907 64.3202ZM58.9354 57.6002H14.0666C12.1445 57.6002 10.5802 56.0359 10.5802 54.1133V52.8002H62.4202V54.1154C62.4202 56.0369 60.8573 57.6002 58.9354 57.6002Z" fill="#E74040"/>
<path d="M36.5001 56.696C37.3107 56.696 37.9679 56.0388 37.9679 55.2281C37.9679 54.4174 37.3107 53.7603 36.5001 53.7603C35.6894 53.7603 35.0322 54.4174 35.0322 55.2281C35.0322 56.0388 35.6894 56.696 36.5001 56.696Z" fill="#E74040"/>
<path d="M15.3804 33.6H17.3004V35.5199C17.3004 36.0501 17.7303 36.4799 18.2604 36.4799H22.1004C22.6306 36.4799 23.0604 36.0501 23.0604 35.5199V33.6H24.9804C25.5106 33.6 25.9404 33.1701 25.9404 32.64V28.8C25.9404 28.2698 25.5106 27.84 24.9804 27.84H23.0604V25.92C23.0604 25.3898 22.6306 24.96 22.1004 24.96H18.2604C17.7303 24.96 17.3004 25.3898 17.3004 25.92V27.84H15.3804C14.8503 27.84 14.4204 28.2698 14.4204 28.8V32.64C14.4204 33.1701 14.8503 33.6 15.3804 33.6ZM16.3404 29.76H18.2604C18.7906 29.76 19.2204 29.3301 19.2204 28.8V26.88H21.1404V28.8C21.1404 29.3301 21.5703 29.76 22.1004 29.76H24.0204V31.68H22.1004C21.5703 31.68 21.1404 32.1098 21.1404 32.64V34.5599H19.2204V32.64C19.2204 32.1098 18.7906 31.68 18.2604 31.68H16.3404V29.76Z" fill="#E74040"/>
<path d="M29.7798 35.5199H54.7398C55.2705 35.5199 55.6998 35.0901 55.6998 34.5599V26.8799C55.6998 26.3498 55.2705 25.9199 54.7398 25.9199H29.7798C29.2497 25.9199 28.8198 26.3498 28.8198 26.8799V34.5599C28.8198 35.0901 29.2497 35.5199 29.7798 35.5199ZM30.7398 27.8399H53.7798V33.5999H30.7398V27.8399Z" fill="#E74040"/>
<path d="M15.3804 40.3204C15.3804 40.8505 15.8102 41.2803 16.3404 41.2803H56.6604C57.191 41.2803 57.6204 40.8505 57.6204 40.3204C57.6204 39.7902 57.191 39.3604 56.6604 39.3604H16.3404C15.8102 39.3604 15.3804 39.7902 15.3804 40.3204Z" fill="#E74040"/>
<path d="M46.1004 42.2402H16.3404C15.8102 42.2402 15.3804 42.6701 15.3804 43.2002C15.3804 43.7304 15.8102 44.1602 16.3404 44.1602H46.1004C46.631 44.1602 47.0604 43.7304 47.0604 43.2002C47.0604 42.6701 46.631 42.2402 46.1004 42.2402Z" fill="#E74040"/>
<path d="M32.6604 45.1201H16.3404C15.8102 45.1201 15.3804 45.55 15.3804 46.0801C15.3804 46.6103 15.8102 47.0401 16.3404 47.0401H32.6604C33.191 47.0401 33.6204 46.6103 33.6204 46.0801C33.6204 45.55 33.191 45.1201 32.6604 45.1201Z" fill="#E74040"/>
</g>
</g>
<defs>
<clipPath id="clip0_2_188">
<rect width="72" height="72" fill="white" transform="translate(0.5)"/>
</clipPath>
<clipPath id="clip1_2_188">
<rect width="55.6802" height="60.48" fill="white" transform="translate(8.66016 5.76025)"/>
</clipPath>
</defs>
</svg>
