<svg width="41" height="40" viewBox="0 0 41 40" fill="none" xmlns="http://www.w3.org/2000/svg">
<path d="M0.5 20C0.5 8.95431 9.45431 0 20.5 0C31.5457 0 40.5 8.95431 40.5 20C40.5 31.0457 31.5457 40 20.5 40C9.45431 40 0.5 31.0457 0.5 20Z" fill="white"/>
<path d="M20.5011 15.9532L19.1367 14.5566L19.1362 14.556C18.7883 14.2018 18.3733 13.9204 17.9154 13.7283C17.4576 13.5362 16.966 13.4372 16.4695 13.4372C15.9729 13.4372 15.4814 13.5362 15.0235 13.7283C14.5657 13.9203 14.1508 14.2017 13.8029 14.5559C13.0889 15.2808 12.6887 16.2575 12.6887 17.275C12.6887 18.2926 13.089 19.2693 13.8031 19.9943L13.8034 19.9946L20.2784 26.5508L20.5007 26.776L20.7231 26.5508L27.1981 19.9946L27.1983 19.9943C27.9124 19.2693 28.3127 18.2926 28.3127 17.275C28.3127 16.2575 27.9125 15.2809 27.1986 14.5559C26.8509 14.2015 26.4359 13.92 25.9781 13.7279C25.5203 13.5359 25.0288 13.4372 24.5324 13.4375C24.5322 13.4375 24.5319 13.4375 24.5317 13.4375L24.532 13.75M20.5011 15.9532L21.8581 14.5695L21.8588 14.5687L22.082 14.7875M20.5011 15.9532L21.8572 14.5704M20.5011 15.9532L21.8572 14.5704M24.532 13.75C24.0748 13.7493 23.6222 13.8409 23.2013 14.0192C22.7803 14.1974 22.3996 14.4587 22.082 14.7875M24.532 13.75C24.987 13.7496 25.4376 13.8401 25.8572 14.0161C26.2768 14.1921 26.6571 14.4501 26.9757 14.775L24.532 13.75ZM22.082 14.7875L21.8572 14.5704M22.082 14.7875L21.8572 14.5704M24.5317 12.8125L24.5319 12.8125C25.1118 12.8127 25.6858 12.9283 26.2206 13.1526C26.7554 13.3769 27.2401 13.7054 27.6466 14.119C28.4755 14.9629 28.9399 16.0984 28.9399 17.2813C28.9399 18.4639 28.4756 19.5993 27.647 20.4431C27.6468 20.4432 27.6467 20.4434 27.6465 20.4435L20.5007 27.6802L13.3549 20.4435C13.3548 20.4434 13.3547 20.4433 13.3546 20.4432C12.5259 19.5994 12.0615 18.464 12.0615 17.2813C12.0615 16.0985 12.5259 14.9629 13.3548 14.1191C13.7613 13.7058 14.2461 13.3774 14.7809 13.1533C15.3156 12.9292 15.8896 12.8138 16.4695 12.8138C17.0493 12.8138 17.6233 12.9292 18.158 13.1533C18.6928 13.3774 19.1776 13.7058 19.5842 14.1191L19.585 14.12L20.2788 14.82L20.5007 15.0439L20.7227 14.82L21.4164 14.12L21.4176 14.1188C21.8236 13.7047 22.3082 13.3759 22.8429 13.1516C23.3777 12.9273 23.9518 12.812 24.5317 12.8125Z" fill="#BDBDBD" stroke="#252B42" stroke-width="0.625"/>
</svg>
