<svg width="90" height="90" viewBox="0 0 90 90" fill="none" xmlns="http://www.w3.org/2000/svg">
<path d="M0.5 44.5C0.5 19.9233 20.4233 0 45 0C69.5767 0 89.5 19.9233 89.5 44.5V45.5C89.5 70.0767 69.5767 90 45 90C20.4233 90 0.5 70.0767 0.5 45.5V44.5Z" fill="#E77C40"/>
<path d="M30.7039 37.224H34.4479V54H30.7039L22.7119 43.488V54H18.9679V37.224H22.4719L30.7039 48.024V37.224ZM49.5091 52.128C48.0531 53.504 46.3411 54.192 44.3731 54.192C42.4211 54.192 40.8051 53.592 39.5251 52.392C38.2451 51.176 37.6051 49.552 37.6051 47.52C37.6051 45.488 38.2531 43.872 39.5491 42.672C40.8611 41.472 42.4051 40.872 44.1811 40.872C45.9571 40.872 47.4611 41.408 48.6931 42.48C49.9411 43.552 50.5651 45.024 50.5651 46.896V48.816H41.1571C41.2691 49.52 41.6371 50.096 42.2611 50.544C42.8851 50.992 43.5891 51.216 44.3731 51.216C45.6371 51.216 46.6771 50.792 47.4931 49.944L49.5091 52.128ZM46.9171 46.248C46.8371 45.48 46.5491 44.888 46.0531 44.472C45.5571 44.056 44.9491 43.848 44.2291 43.848C43.5251 43.848 42.8771 44.064 42.2851 44.496C41.6931 44.928 41.3491 45.512 41.2531 46.248H46.9171ZM59.8638 54H56.1438L51.7518 41.088H55.4718L57.9918 48.888L60.5118 41.088H63.9918L66.5118 48.888L69.0318 41.088H72.7758L68.3838 54H64.6398L62.2638 46.968L59.8638 54Z" fill="white"/>
</svg>
