<svg width="17" height="16" viewBox="0 0 17 16" fill="none" xmlns="http://www.w3.org/2000/svg">
<g clip-path="url(#clip0_2_277)">
<path d="M16.3333 13.8337H2V0.833659C2 0.741992 1.925 0.666992 1.83333 0.666992H0.666667C0.575 0.666992 0.5 0.741992 0.5 0.833659V15.167C0.5 15.2587 0.575 15.3337 0.666667 15.3337H16.3333C16.425 15.3337 16.5 15.2587 16.5 15.167V14.0003C16.5 13.9087 16.425 13.8337 16.3333 13.8337ZM3.5 12.5003H14.6667C14.7583 12.5003 14.8333 12.4253 14.8333 12.3337V3.25033C14.8333 3.10033 14.6521 3.02741 14.5479 3.13158L10.1667 7.51283L7.55417 4.92949C7.52284 4.89848 7.48054 4.88108 7.43646 4.88108C7.39238 4.88108 7.35007 4.89848 7.31875 4.92949L3.38125 8.87949C3.36596 8.89481 3.35385 8.91301 3.34562 8.93303C3.3374 8.95306 3.33322 8.97451 3.33333 8.99616V12.3337C3.33333 12.4253 3.40833 12.5003 3.5 12.5003Z" fill="#40BB15"/>
</g>
<defs>
<clipPath id="clip0_2_277">
<rect width="16" height="14.6667" fill="white" transform="translate(0.5 0.666992)"/>
</clipPath>
</defs>
</svg>
